<svg width="13" height="17" viewBox="0 0 13 17" fill="none" xmlns="http://www.w3.org/2000/svg">
<path d="M6.5 9.17179C7.63909 9.17179 8.5625 8.2689 8.5625 7.15512C8.5625 6.04135 7.63909 5.13846 6.5 5.13846C5.36091 5.13846 4.4375 6.04135 4.4375 7.15512C4.4375 8.2689 5.36091 9.17179 6.5 9.17179Z" fill="white"/>
<path d="M6.5 15.2218C9.25 12.5329 12 10.1252 12 7.15512C12 4.18506 9.53757 1.77734 6.5 1.77734C3.46243 1.77734 1 4.18506 1 7.15512C1 10.1252 3.75 12.5329 6.5 15.2218Z" fill="white"/>
<path d="M6.5 9.17179C7.63909 9.17179 8.5625 8.2689 8.5625 7.15512C8.5625 6.04135 7.63909 5.13846 6.5 5.13846C5.36091 5.13846 4.4375 6.04135 4.4375 7.15512C4.4375 8.2689 5.36091 9.17179 6.5 9.17179Z" stroke="white" stroke-width="2" stroke-linecap="round" stroke-linejoin="round"/>
<path d="M6.5 15.2218C9.25 12.5329 12 10.1252 12 7.15512C12 4.18506 9.53757 1.77734 6.5 1.77734C3.46243 1.77734 1 4.18506 1 7.15512C1 10.1252 3.75 12.5329 6.5 15.2218Z" stroke="white" stroke-width="2" stroke-linecap="round" stroke-linejoin="round"/>
<path d="M8.94423 7.27745C8.94423 8.62748 7.82494 9.7219 6.44423 9.7219C5.06352 9.7219 3.94423 8.62748 3.94423 7.27745C3.94423 5.92742 5.06352 4.83301 6.44423 4.83301C7.82494 4.83301 8.94423 5.92742 8.94423 7.27745Z" fill="#597CF4"/>
</svg>
