<svg width="24" height="26" viewBox="0 0 24 26" fill="none" xmlns="http://www.w3.org/2000/svg">
<path d="M9.05681 21.8453L9.76153 23.4227C9.97102 23.8922 10.3129 24.2911 10.7457 24.5711C11.1785 24.8511 11.6837 25.0001 12.1999 25C12.7161 25.0001 13.2213 24.8511 13.6541 24.5711C14.0869 24.2911 14.4288 23.8922 14.6383 23.4227L15.343 21.8453C15.5939 21.2856 16.0158 20.819 16.5488 20.512C17.0851 20.2041 17.7055 20.073 18.3213 20.1373L20.0456 20.32C20.5588 20.374 21.0768 20.2787 21.5368 20.0456C21.9967 19.8125 22.3788 19.4516 22.6367 19.0067C22.8949 18.562 23.018 18.0523 22.9909 17.5395C22.9638 17.0266 22.7877 16.5326 22.4839 16.1173L21.463 14.7213C21.0995 14.2206 20.9053 13.6178 20.9084 13C20.9083 12.3839 21.1043 11.7836 21.4684 11.2853L22.4893 9.88933C22.793 9.47411 22.9691 8.98008 22.9962 8.46721C23.0233 7.95433 22.9003 7.44465 22.642 7C22.3841 6.55508 22.002 6.19419 21.5421 5.96107C21.0822 5.72796 20.5642 5.63264 20.0509 5.68667L18.3267 5.86933C17.7109 5.93369 17.0905 5.80255 16.5541 5.49467C16.0201 5.1859 15.598 4.71683 15.3484 4.15467L14.6383 2.57733C14.4288 2.10781 14.0869 1.70886 13.6541 1.42888C13.2213 1.1489 12.7161 0.999916 12.1999 1C11.6837 0.999916 11.1785 1.1489 10.7457 1.42888C10.3129 1.70886 9.97102 2.10781 9.76153 2.57733L9.05681 4.15467C8.80713 4.71683 8.38503 5.1859 7.85102 5.49467C7.31471 5.80255 6.69427 5.93369 6.07851 5.86933L4.34887 5.68667C3.8356 5.63264 3.31761 5.72796 2.85769 5.96107C2.39777 6.19419 2.01569 6.55508 1.75776 7C1.49951 7.44465 1.37647 7.95433 1.40358 8.46721C1.4307 8.98008 1.60679 9.47411 1.9105 9.88933L2.9314 11.2853C3.29548 11.7836 3.49153 12.3839 3.49142 13C3.49153 13.6161 3.29548 14.2164 2.9314 14.7147L1.9105 16.1107C1.60679 16.5259 1.4307 17.0199 1.40358 17.5328C1.37647 18.0457 1.49951 18.5554 1.75776 19C2.01594 19.4447 2.39807 19.8054 2.85792 20.0385C3.31778 20.2716 3.83564 20.367 4.34887 20.3133L6.07315 20.1307C6.68891 20.0663 7.30935 20.1975 7.84566 20.5053C8.38167 20.8132 8.80572 21.2824 9.05681 21.8453Z" fill="#94ACFE" stroke="#94ACFE" stroke-width="2" stroke-linecap="round" stroke-linejoin="round"/>
<path d="M12.2004 16.6004C14.1982 16.6004 15.8177 14.9886 15.8177 13.0004C15.8177 11.0122 14.1982 9.40039 12.2004 9.40039C10.2026 9.40039 8.58301 11.0122 8.58301 13.0004C8.58301 14.9886 10.2026 16.6004 12.2004 16.6004Z" fill="#597CF4" stroke="#597CF4" stroke-width="2" stroke-linecap="round" stroke-linejoin="round"/>
</svg>
