<svg width="28" height="28" viewBox="0 0 28 28" fill="none" xmlns="http://www.w3.org/2000/svg">
<path d="M21.7565 9.31672L6.24347 18.2732M21.7565 9.31672L23.1615 4.07325M21.7565 9.31672L27 10.7217M6.24347 18.2732L1 16.8682M6.24347 18.2732L4.83848 23.5167M21.7564 18.273L6.24336 9.31653M21.7564 18.273L27 16.868M21.7564 18.273L23.1615 23.5165M6.24336 9.31653L4.83867 4.07339M6.24336 9.31653L1.00018 10.7218M14 4.83849L14 22.7514M14 4.83849L10.1615 1M14 4.83849L17.8385 1M14 22.7514L10.1615 26.5899M14 22.7514L17.8385 26.5899" stroke="black" stroke-width="2" stroke-linecap="round" stroke-linejoin="round"/>
</svg>
