<svg width="25" height="24" viewBox="0 0 25 24" fill="none" xmlns="http://www.w3.org/2000/svg">
<path d="M1.69336 10.4249C0.950424 10.136 0.578954 9.9915 0.470503 9.78334C0.376489 9.6029 0.376362 9.38794 0.470165 9.20739C0.578371 8.9991 0.949671 8.85421 1.69227 8.56441L22.7667 0.340242C23.4371 0.0786407 23.7722 -0.0521599 23.9864 0.0193898C24.1724 0.0815265 24.3184 0.227492 24.3805 0.413492C24.4521 0.627669 24.3213 0.962846 24.0597 1.6332L15.8355 22.7076C15.5457 23.4502 15.4008 23.8215 15.1925 23.9297C15.012 24.0235 14.797 24.0234 14.6166 23.9294C14.4084 23.8209 14.2639 23.4495 13.975 22.7065L10.6954 14.2731C10.6367 14.1223 10.6074 14.0469 10.5621 13.9834C10.522 13.9272 10.4727 13.8779 10.4165 13.8378C10.353 13.7925 10.2776 13.7632 10.1268 13.7045L1.69336 10.4249Z" fill="#597CF4"/>
<mask id="mask0_1434_9985" style="mask-type:alpha" maskUnits="userSpaceOnUse" x="0" y="0" width="25" height="24">
<path d="M1.69341 10.4249C0.950474 10.136 0.579005 9.9915 0.470554 9.78334C0.376539 9.6029 0.376412 9.38794 0.470215 9.20739C0.578421 8.9991 0.949721 8.85421 1.69232 8.56441L22.7668 0.340242C23.4371 0.0786407 23.7723 -0.0521599 23.9865 0.0193898C24.1725 0.0815265 24.3184 0.227492 24.3806 0.413492C24.4521 0.627669 24.3213 0.962846 24.0597 1.6332L15.8355 22.7076C15.5457 23.4502 15.4009 23.8215 15.1926 23.9297C15.012 24.0235 14.7971 24.0234 14.6166 23.9294C14.4085 23.8209 14.264 23.4495 13.9751 22.7065L10.6954 14.2731C10.6368 14.1223 10.6074 14.0469 10.5622 13.9834C10.522 13.9272 10.4728 13.8779 10.4165 13.8378C10.353 13.7925 10.2776 13.7632 10.1268 13.7045L1.69341 10.4249Z" fill="#597CF4"/>
</mask>
<g mask="url(#mask0_1434_9985)">
<path d="M-1.62387 7.67339L27.1124 -2.70652L4.74793 19.7196L-1.62387 7.67339Z" fill="#94ACFE"/>
</g>
</svg>
