<svg width="28" height="27" viewBox="0 0 28 27" fill="none" xmlns="http://www.w3.org/2000/svg">
<path d="M19.2 22.45L17.9 25.7M8.8 22.45L7.5 25.7M14 22.45L12.7 25.7M7.5 17.9C3.91015 17.9 1 14.9899 1 11.4C1 7.81015 3.91015 4.9 7.5 4.9C7.54309 4.9 7.58609 4.90042 7.62898 4.90126C8.81221 2.58548 11.221 1 14 1C17.275 1 20.0357 3.20188 20.8826 6.20601C20.9712 6.20202 21.0604 6.2 21.15 6.2C24.3809 6.2 27 8.81913 27 12.05C27 15.2809 24.3809 17.9 21.15 17.9C16.2664 17.9 13.0058 17.9 7.5 17.9Z" stroke="black" stroke-width="2" stroke-linecap="round" stroke-linejoin="round"/>
</svg>
