<svg width="28" height="28" viewBox="0 0 28 28" fill="none" xmlns="http://www.w3.org/2000/svg">
<path d="M2.49504 12.7C2.36714 12.0699 2.3 11.4178 2.3 10.75C2.3 5.36522 6.66522 1 12.05 1C16.994 1 21.0785 4.67983 21.7141 9.45M6.2 27C3.32812 27 1 24.6719 1 21.8C1 18.9281 3.32812 16.6 6.2 16.6C6.34733 16.6 6.49322 16.6061 6.63745 16.6181C7.70309 13.5792 10.5971 11.4 14 11.4C16.8923 11.4 19.4169 12.9742 20.7637 15.3125C20.8914 15.3042 21.0202 15.3 21.15 15.3C24.3809 15.3 27 17.9191 27 21.15C27 24.3809 24.3809 27 21.15 27C16.2923 27 11.471 27 6.2 27Z" stroke="black" stroke-width="2" stroke-linecap="round" stroke-linejoin="round"/>
</svg>
