<svg width="23" height="22" viewBox="0 0 23 22" fill="none" xmlns="http://www.w3.org/2000/svg">
<circle cx="11.4001" cy="17.1115" r="4.88889" fill="#597CF4"/>
<path d="M18.9522 6.96667C18.9522 5.11899 18.1565 3.34699 16.7402 2.04049C15.3239 0.733986 13.4029 0 11.3999 0C9.3969 0 7.47594 0.733986 6.0596 2.04049C4.64327 3.34699 3.84758 5.11899 3.84758 6.96667C3.84758 10.5547 2.86637 13.0114 1.77027 14.6363C0.84569 16.0069 0.383401 16.6923 0.400352 16.8834C0.419121 17.0951 0.467738 17.1758 0.652664 17.3024C0.819675 17.4167 1.57256 17.4167 3.07832 17.4167H19.7215C21.2272 17.4167 21.9801 17.4167 22.1471 17.3024C22.3321 17.1758 22.3807 17.0951 22.3995 16.8834C22.4164 16.6923 21.9541 16.0069 21.0295 14.6363C19.9334 13.0114 18.9522 10.5547 18.9522 6.96667Z" fill="#94ACFE"/>
</svg>
