<svg width="50" height="96" viewBox="0 0 50 96" fill="none" xmlns="http://www.w3.org/2000/svg">
<rect width="50" height="96" rx="15" fill="#FF4250"/>
<path d="M29.8484 40.8V39.84C29.8484 38.4959 29.8484 37.8238 29.5842 37.3104C29.3517 36.8588 28.9809 36.4917 28.5247 36.2616C28.0062 36 27.3273 36 25.9696 36H24.0302C22.6725 36 21.9937 36 21.4751 36.2616C21.0189 36.4917 20.6481 36.8588 20.4157 37.3104C20.1514 37.8238 20.1514 38.4959 20.1514 39.84V40.8M22.5757 47.4V53.4M27.4242 47.4V53.4M14.0908 40.8H35.909M33.4848 40.8V54.24C33.4848 56.2562 33.4848 57.2643 33.0884 58.0344C32.7398 58.7118 32.1835 59.2625 31.4993 59.6076C30.7214 60 29.7031 60 27.6666 60H22.3332C20.2967 60 19.2784 60 18.5006 59.6076C17.8163 59.2625 17.26 58.7118 16.9114 58.0344C16.5151 57.2643 16.5151 56.2562 16.5151 54.24V40.8" stroke="white" stroke-width="2" stroke-linecap="round" stroke-linejoin="round"/>
</svg>
