<svg width="64" height="96" viewBox="0 0 64 96" fill="none" xmlns="http://www.w3.org/2000/svg">
<rect width="64" height="96" rx="15" fill="#FF4250"/>
<path d="M36.7576 41.8V40.84C36.7576 39.4959 36.7576 38.8238 36.4933 38.3104C36.2609 37.8588 35.8901 37.4917 35.4339 37.2616C34.9153 37 34.2365 37 32.8788 37H30.9394C29.5817 37 28.9028 37 28.3843 37.2616C27.9281 37.4917 27.5573 37.8588 27.3248 38.3104C27.0606 38.8238 27.0606 39.4959 27.0606 40.84V41.8M29.4848 48.4V54.4M34.3333 48.4V54.4M21 41.8H42.8182M40.3939 41.8V55.24C40.3939 57.2562 40.3939 58.2643 39.9976 59.0344C39.649 59.7118 39.0927 60.2625 38.4085 60.6076C37.6306 61 36.6123 61 34.5758 61H29.2424C27.2059 61 26.1876 61 25.4097 60.6076C24.7255 60.2625 24.1692 59.7118 23.8206 59.0344C23.4242 58.2643 23.4242 57.2562 23.4242 55.24V41.8" stroke="white" stroke-width="2" stroke-linecap="round" stroke-linejoin="round"/>
</svg>
